<?xml version="1.0" encoding="UTF-8" standalone="no"?>
<!-- Uploaded to: SVG Repo, www.svgrepo.com, Generator: SVG Repo Mixer Tools -->

<svg
   width="800px"
   height="800px"
   viewBox="0 0 24 24"
   fill="none"
   version="1.1"
   id="svg1"
   sodipodi:docname="figma.svg"
   inkscape:version="1.4.4 (dcaf3e7d9e, 2026-05-05)"
   xmlns:inkscape="http://www.inkscape.org/namespaces/inkscape"
   xmlns:sodipodi="http://sodipodi.sourceforge.net/DTD/sodipodi-0.dtd"
   xmlns="http://www.w3.org/2000/svg"
   xmlns:svg="http://www.w3.org/2000/svg">
  <defs
     id="defs1" />
  <sodipodi:namedview
     id="namedview1"
     pagecolor="#ffffff"
     bordercolor="#000000"
     borderopacity="0.25"
     inkscape:showpageshadow="2"
     inkscape:pageopacity="0.0"
     inkscape:pagecheckerboard="0"
     inkscape:deskcolor="#d1d1d1"
     inkscape:zoom="1.4495689"
     inkscape:cx="547.74906"
     inkscape:cy="311.12698"
     inkscape:window-width="1829"
     inkscape:window-height="1068"
     inkscape:window-x="0"
     inkscape:window-y="0"
     inkscape:window-maximized="1"
     inkscape:current-layer="svg1" />
  <path
     d="M 12,1.5248781 H 8.5082927 c -1.9284118,0 -3.4917073,1.5632956 -3.4917073,3.4917074 0,1.9284117 1.5632955,3.4917075 3.4917073,3.4917075 M 12,1.5248781 V 8.508293 m 0,-6.9834148 h 3.491707 c 1.92847,0 3.491708,1.5632956 3.491708,3.4917073 0,1.9284117 -1.563238,3.4917075 -3.491708,3.4917075 M 12,8.508293 H 8.5082927 m 3.4917073,0 h 3.491707 m -3.491707,0 v 6.983414 M 8.5082927,8.508293 c -1.9284118,0 -3.4917073,1.563237 -3.4917073,3.491707 0,1.92847 1.5632955,3.491707 3.4917073,3.491707 M 15.491707,8.508293 c 1.92847,0 3.491708,1.563237 3.491708,3.491707 0,1.92847 -1.563238,3.491707 -3.491708,3.491707 C 13.563237,15.491707 12,13.92847 12,12 12,10.07153 13.563237,8.508293 15.491707,8.508293 Z M 12,15.491707 H 8.5082927 m 3.4917073,0 v 3.491708 c 0,1.92847 -1.563237,3.491707 -3.4917073,3.491707 -1.9284118,0 -3.4917073,-1.563237 -3.4917073,-3.491707 0,-1.92847 1.5632955,-3.491708 3.4917073,-3.491708"
     stroke="#000000"
     stroke-width="2.3278"
     stroke-linecap="round"
     stroke-linejoin="round"
     id="path1"
     style="stroke:#ffffff;stroke-opacity:1" />
</svg>
