<?xml version="1.0" encoding="UTF-8" standalone="no"?>
<svg
   version="1.1"
   width="447"
   height="447"
   id="svg10"
   sodipodi:docname="fusion360.svg"
   inkscape:version="1.4.4 (dcaf3e7d9e, 2026-05-05)"
   xmlns:inkscape="http://www.inkscape.org/namespaces/inkscape"
   xmlns:sodipodi="http://sodipodi.sourceforge.net/DTD/sodipodi-0.dtd"
   xmlns="http://www.w3.org/2000/svg"
   xmlns:svg="http://www.w3.org/2000/svg">
  <defs
     id="defs10" />
  <sodipodi:namedview
     id="namedview10"
     pagecolor="#ffffff"
     bordercolor="#000000"
     borderopacity="0.25"
     inkscape:showpageshadow="2"
     inkscape:pageopacity="0.0"
     inkscape:pagecheckerboard="0"
     inkscape:deskcolor="#d1d1d1"
     inkscape:zoom="1.2971534"
     inkscape:cx="117.17966"
     inkscape:cy="242.83943"
     inkscape:window-width="1829"
     inkscape:window-height="1068"
     inkscape:window-x="0"
     inkscape:window-y="0"
     inkscape:window-maximized="1"
     inkscape:current-layer="svg10" />
  <path
     d="m 117.22191,0.06570938 c 2.89244,-0.0066675 5.78485,-0.01986193 8.67723,-0.03895022 7.76978,-0.03234384 15.53628,0.02741601 23.30562,0.10694057 8.16811,0.0693457 16.33618,0.0580049 24.50454,0.0574349 13.69761,0.0107596 27.394,0.0785031 41.09119,0.18437705 15.80751,0.1218073 31.6138,0.16827843 47.42174,0.17132338 16.89072,0.003766 33.78098,0.0581454 50.67152,0.12957576 4.84511,0.0173659 9.69018,0.0258016 14.53531,0.032408 7.62008,0.0131802 15.23923,0.0607493 22.85896,0.13443152 2.78722,0.0219568 5.57453,0.0329098 8.36182,0.0317595 31.61549,0.003766 31.61549,0.003766 42.57046,10.95879016 3.49647,6.992958 3.5181,13.390947 3.48408,21.151028 -0.005,2.151761 -0.011,4.303521 -0.0162,6.520486 -0.0138,2.264329 -0.028,4.528657 -0.042,6.792984 -0.008,2.290277 -0.0159,4.580557 -0.0227,6.87084 -0.0195,5.599214 -0.0494,11.198391 -0.081,16.797556 9.86596,0 19.73195,0 29.89691,0 0,124.420986 0,248.841986 0,377.033306 -121.68045,0 -243.36088,0 -368.728606,0 0,-1.09623 0,-2.19244 0,-3.32188 -0.959192,-0.10276 -1.918386,-0.20555 -2.906644,-0.31143 -6.165194,-2.22632 -8.935112,-7.23572 -12.203354,-12.70288 -1.813382,-4.34793 -1.961736,-7.72276 -2.028984,-12.43019 -0.033,-1.76192 -0.06601,-3.52384 -0.100002,-5.33916 -0.01919,-1.89125 -0.03838,-3.78249 -0.05814,-5.73106 -0.03217,-1.94452 -0.06433,-3.88903 -0.09748,-5.89246 -0.09929,-6.21067 -0.17635,-12.42138 -0.252881,-18.63236 -0.06342,-4.21075 -0.12828,-8.42151 -0.194641,-12.63222 -0.159517,-10.32228 -0.300785,-20.64471 -0.428211,-30.96745 -0.938585,0.50316 -1.87717,1.0063 -2.844198,1.5247 -4.238615,2.26711 -8.482756,4.52367 -12.727113,6.78001 -2.215992,1.18828 -2.215992,1.18828 -4.476751,2.40057 -1.413096,0.74937 -2.826192,1.49874 -4.282109,2.27082 -1.304705,0.69583 -2.609412,1.39168 -3.953652,2.10862 -3.274031,1.52469 -3.274031,1.52469 -6.59591,1.52469 0,-103.0447 0,-206.08939 0,-312.256666 23.842814,-13.15464 23.842814,-13.15464 48.167275,-26.575032 7.14187,-4.466143 7.14187,-4.466143 14.42802,-9.0225125 13.951916,-7.82857926 26.474591,-7.99188457 42.066221,-7.72840337 z"
     fill="#2e2e2e"
     id="path2"
     style="stroke-width:1.66094;fill:#ffffff;fill-opacity:1" />
  <path
     d="m 404.54217,71.627631 c 9.31787,0 18.63573,0 28.23598,0 0,123.324759 0,246.649539 0,373.711429 -90.59233,0.15415 -90.59233,0.15415 -183.01479,0.31141 -19.08791,0.0454 -38.17581,0.0907 -57.84213,0.13748 -23.26269,0.0225 -23.26269,0.0225 -34.14409,0.0267 -7.61928,0.005 -15.23837,0.0233 -22.85759,0.0505 -9.71094,0.0341 -19.42165,0.0445 -29.13265,0.0374 -3.5688,10e-4 -7.137646,0.011 -10.706408,0.0305 -4.81233,0.0247 -9.623676,0.0188 -14.436018,0.005 -1.403648,0.0146 -2.807295,0.0289 -4.253483,0.0439 -7.735317,-0.0592 -12.664916,-0.68872 -18.985201,-5.626 -8.866829,-9.19039 -7.499594,-19.45617 -7.292564,-31.64869 0.0094,-2.08727 0.01881,-4.17456 0.02848,-6.32509 0.03081,-5.52186 0.0904,-11.04186 0.164127,-16.56322 0.06824,-5.64495 0.09835,-11.29008 0.13179,-16.93531 0.07317,-11.05614 0.184272,-22.11141 0.324402,-33.1669 30.999768,-24.11175 65.522835,-20.69256 102.811595,-20.12283 8.84433,0.11539 17.6888,0.12504 26.53375,0.14662 16.6941,0.0565 33.38597,0.20591 50.07907,0.39006 22.59596,0.24381 45.19254,0.34132 67.78947,0.44767 35.52375,0.17102 71.0428,0.53521 106.56626,0.86816 0,-81.12031 0,-162.2406 0,-245.819077 z"
     fill="#010101"
     id="path3"
     style="stroke-width:1.66094;fill:#4b4b4b;fill-opacity:1" />
  <path
     d="m 117.45913,0.17114036 c 2.91667,0.004306 5.83334,0.001832 8.74999,-0.006566 7.83074,-0.004306 15.65797,0.082925 23.4879,0.1879611 8.21489,0.0941691 16.42989,0.10229238 24.64524,0.119963 15.51759,0.0462559 31.03359,0.16862911 46.55049,0.31914225 17.68194,0.16775144 35.36394,0.24944169 53.04647,0.32431379 36.33781,0.1557693 72.67416,0.4182823 109.01074,0.7522603 0,0.5481106 0,1.0962212 0,1.6609394 -97.0155,0 -194.03099,0 -293.986319,0 0.154153,22.4446818 0.30832,44.8893618 0.467148,68.0141838 0.06792,14.19261 0.132378,28.38512 0.181661,42.577792 0.07887,22.54299 0.17178,45.08532 0.353599,67.62774 0.132343,16.41609 0.21814,32.83164 0.247803,49.24823 0.01728,8.69467 0.05817,17.38781 0.154677,26.082 0.09007,8.1815 0.118065,16.36086 0.09798,24.54282 0.0037,3.00442 0.03018,6.00895 0.08106,9.01294 0.366123,22.72844 0.366123,22.72844 -4.435923,28.69388 -3.461838,2.21488 -6.537882,3.50804 -10.435538,4.76176 -1.989861,1.0788 -3.959531,2.19592 -5.904121,3.35433 -1.819897,0.98273 -3.639794,1.9655 -5.514839,2.97802 -1.845589,1.00414 -3.691177,2.0083 -5.592695,3.04287 -4.58056,2.25136 -4.58056,2.25136 -7.902439,2.25136 0,30.14606 0,60.2921 0,91.35168 -0.548111,0 -1.09622,0 -1.660941,0 -0.822164,-43.57474 -0.822164,-43.57474 -1.660939,-88.02981 -10.414092,5.48111 -20.828184,10.96222 -31.557853,16.60941 -1.09622,0 -2.192441,0 -3.321879,0 0,-103.0447 0,-206.08939 0,-312.256652 C 36.403188,30.237055 36.403188,30.237055 60.72765,16.816662 65.484004,13.837059 70.240358,10.857455 75.140843,7.7875591 89.168623,-0.08311653 101.79031,-0.15230998 117.45912,0.17117915 Z"
     fill="#767676"
     id="path4"
     style="stroke-width:1.66094;fill:#a0a0a0;fill-opacity:1" />
  <path
     d="m 196.92472,73.288575 c 36.72336,0 73.44674,0 111.28295,0 0,10.41409 0,20.828177 0,31.557835 -22.47252,0 -44.94503,0 -68.09853,0 0,13.70277 0,27.40552 0,41.52351 18.63576,0 37.27149,0 56.47195,0 0,9.86597 0,19.73196 0,29.89691 -18.63574,0 -37.27148,0 -56.47195,0 0,23.56873 0,47.13746 0,71.4204 -14.25085,0 -28.50172,0 -43.18442,0 0,-57.55156 0,-115.10311 0,-174.398655 z"
     fill="#fefefe"
     id="path5"
     style="stroke-width:1.66094;fill:#000000;fill-opacity:1" />
  <path
     d="m 305.5865,345.70862 c 5.64919,3.42252 8.87516,6.03316 12.58681,11.60063 0.86215,6.7536 0.7687,13.54393 0.83047,20.34651 0.0685,1.86058 0.13703,3.72116 0.20761,5.63812 0.0852,9.02171 0.10088,15.46639 -5.8652,22.57191 -6.43805,6.36357 -11.80767,6.64771 -20.60602,6.77351 -3.27904,0.093 -3.27904,0.093 -6.62429,0.18816 -7.0266,-0.80877 -9.53786,-2.38626 -14.44888,-7.35096 -5.47923,-8.21883 -3.93469,-17.54104 -3.94474,-27.19789 -0.0407,-2.04684 -0.0813,-4.0937 -0.12327,-6.20256 -0.006,-1.97405 -0.0129,-3.94811 -0.0194,-5.98198 -0.0136,-1.80357 -0.0272,-3.60715 -0.0414,-5.46537 0.99503,-6.14123 3.15991,-8.86301 7.45069,-13.28508 9.25525,-4.91919 20.87798,-5.71097 30.59763,-1.635 z"
     fill="#f7f7f7"
     id="path6"
     style="stroke-width:1.66094;fill:#ffffff;fill-opacity:1" />
  <path
     d="m 252.56619,346.72076 c 4.52396,4.29777 7.72745,8.48122 10.79612,13.91037 0,1.09622 0,2.19244 0,3.32189 -5.48111,0 -10.96222,0 -16.60941,0 -0.5481,-1.64434 -1.09622,-3.28867 -1.66094,-4.98283 -4.933,0 -9.86598,0 -14.94845,0 -0.54811,3.83678 -1.09623,7.67354 -1.66094,11.62658 1.09622,-0.54811 2.19244,-1.09622 3.32187,-1.66094 17.16884,-1.54697 17.16884,-1.54697 25.12171,2.90665 5.87187,7.04625 7.1846,12.55661 6.96168,21.59222 -0.82837,5.89064 -3.28811,9.29707 -7.16929,13.70274 -6.53929,4.78934 -11.56053,5.82542 -19.61985,6.0209 -1.92909,0.09 -3.85818,0.17985 -5.84573,0.2725 -8.79811,-1.89266 -14.31484,-5.41965 -19.3798,-12.93716 -1.78457,-7.30217 -1.63762,-14.21738 -1.3495,-21.69602 -0.0102,-1.92375 -0.0192,-3.84747 -0.0293,-5.8295 0.27671,-15.54101 0.27671,-15.54101 5.20018,-21.77714 10.65198,-9.14127 23.9861,-10.45279 36.87156,-4.47026 z"
     fill="#f4f4f4"
     id="path7"
     style="stroke-width:1.66094;fill:#ffffff;fill-opacity:1" />
  <path
     d="m 192.77236,346.20172 c 1.37028,0.92493 2.74056,1.84987 4.15236,2.80283 1.0277,0.65087 2.0554,1.30176 3.11425,1.97238 3.18592,5.13285 2.89756,10.5464 1.86858,16.29795 -1.86058,3.82586 -3.96041,6.61143 -6.64377,9.96565 1.02769,0.41108 2.05541,0.82216 3.11426,1.24571 4.34332,2.5549 5.30185,3.94225 6.85137,8.71992 0.97846,7.54814 0.66466,10.63908 -3.63331,17.02464 -7.31494,7.15239 -11.62637,9.84182 -21.90364,10.27706 -10.49098,-0.29691 -16.68218,-3.08325 -24.18743,-10.58849 -2.14474,-4.16331 -1.89422,-7.10744 -1.76474,-11.73039 2.66194,-0.17979 5.32738,-0.30843 7.99327,-0.41523 1.48375,-0.077 2.9675,-0.15415 4.49621,-0.23357 4.1199,0.6488 4.1199,0.6488 7.14982,3.99664 0.96669,1.63148 0.96669,1.63148 1.95291,3.29593 4.93299,-0.82218 4.93299,-0.82218 9.96563,-1.66094 0.0704,-3.87489 0.0679,-7.75165 0,-11.62659 -2.48714,-2.48713 -4.96328,-2.21241 -8.4085,-2.59521 -2.15818,-0.23981 -4.31635,-0.47959 -6.53996,-0.72666 0,-3.83677 0,-7.67355 0,-11.62658 4.38489,-1.09622 8.76977,-2.19244 13.28753,-3.32189 0,-2.74054 0,-5.4811 0,-8.30469 -3.83678,0 -7.67354,0 -11.62658,0 -0.54811,1.64433 -1.09622,3.28866 -1.66095,4.98283 -5.4811,0 -10.9622,0 -16.60938,0 0.46004,-6.59406 1.27368,-9.50705 5.60566,-14.63704 9.25567,-7.71306 22.51245,-7.207 33.42641,-3.11426 z"
     fill="#f2f2f2"
     id="path8"
     style="stroke-width:1.66094;fill:#ffffff;fill-opacity:1" />
  <path
     d="m 292.32494,356.89401 c 1.95263,0.13703 3.90528,0.27406 5.91709,0.41524 4.72697,7.09047 3.93299,13.25383 3.94473,21.59222 0.0407,1.52014 0.0813,3.04031 0.12328,4.60651 0.006,1.46019 0.0129,2.9204 0.0194,4.42485 0.0136,1.33388 0.0272,2.66775 0.0414,4.04206 -0.80695,3.53598 -0.80695,3.53598 -3.8977,6.52696 -3.55301,1.99183 -3.55301,1.99183 -8.01678,1.57659 -3.84093,-1.24569 -3.84093,-1.24569 -5.50187,-2.90663 -0.16496,-2.81627 -0.21725,-5.63934 -0.22059,-8.46042 -0.003,-2.56605 -0.003,-2.56605 -0.006,-5.18395 0.006,-1.80062 0.0128,-3.60125 0.0195,-5.45645 -0.006,-1.80062 -0.0129,-3.60125 -0.0195,-5.45643 0.002,-1.71071 0.005,-3.42141 0.006,-5.18395 0.002,-1.58117 0.003,-3.16235 0.006,-4.79143 0.35341,-6.03351 1.31917,-5.28944 7.58533,-5.74517 z"
     fill="#090909"
     id="path9"
     style="stroke-width:1.66094;fill:#4b4b4b;fill-opacity:1" />
  <path
     d="m 236.68345,380.14717 c 5.08662,0.41524 5.08662,0.41524 10.06945,3.73713 0.65724,5.14833 0.8264,8.5073 -1.76474,13.0799 -4.93279,2.86417 -9.27482,2.28112 -14.84465,1.86855 -3.1473,-3.1473 -1.96024,-7.59282 -2.04374,-11.77581 0.69368,-5.74939 3.14795,-6.44715 8.58368,-6.90977 z"
     fill="#131313"
     id="path10"
     style="stroke-width:1.66094;fill:#4b4b4b;fill-opacity:1" />
</svg>
